<svg width="128" height="128" viewBox="0 0 128 128" fill="none" xmlns="http://www.w3.org/2000/svg">
<path d="M61.7638 12.5932C26.7061 13.8357 -0.70861 43.2935 0.535342 78.3935L0.561861 78.3926C0.556075 78.7288 0.55923 79.0675 0.571302 79.4082C1.33331 100.909 37.4775 113.663 74.3411 112.357C111.203 111.05 128.294 96.41 127.532 74.9087C127.519 74.568 127.502 74.2298 127.482 73.8945L127.496 73.894C126.252 38.7981 96.8203 11.3508 61.7638 12.5932Z" fill="#B1D8FC"/>
<path fill-rule="evenodd" clip-rule="evenodd" d="M43.1689 53.4206C42.7804 40.7846 52.6652 30.2275 65.2473 29.8406C77.8294 29.4537 88.3442 39.3836 88.7327 52.0197L89.3224 71.199L75.4862 71.6244L74.8965 52.4451C74.7439 47.4833 70.6151 43.5842 65.6746 43.7361C60.734 43.888 56.8525 48.0335 57.0051 52.9952L57.5948 72.1745L43.7587 72.5999L43.1689 53.4206Z" fill="white"/>
<path fill-rule="evenodd" clip-rule="evenodd" d="M65.246 29.8454C52.6639 30.2323 42.7791 40.7894 43.1676 53.4254L43.7573 72.6047L47.012 72.5047L46.4271 53.4815C46.0386 40.8455 52.1258 30.322 66.5735 29.8778C66.7661 29.8718 66.9583 29.8678 67.15 29.8655C66.5214 29.8327 65.8864 29.8257 65.246 29.8454ZM78.1365 71.5476L77.5491 52.4415C77.3965 47.4797 72.6739 43.5988 67.0007 43.7733C66.9442 43.775 66.8878 43.7771 66.8315 43.7797C71.2436 44.214 74.7547 47.8815 74.8952 52.4499L75.4849 71.6292L78.1365 71.5476ZM57.0015 52.9107C57.002 52.9647 57.0032 53.0189 57.0048 53.0732L57.5923 72.1793L57.5935 72.1793L57.0038 53C57.0029 52.9702 57.0021 52.9404 57.0015 52.9107Z" fill="#5938B7"/>
<path d="M46.3683 125.296L45.5147 68.7744L100.921 67.9386L96.5517 118.933L46.3683 125.296Z" fill="#C4B1F9"/>
<path d="M33.4989 113.567L46.3988 125.038L45.5555 69.1946L32.9118 74.6884L33.4989 113.567Z" fill="#5938B7"/>
<path fill-rule="evenodd" clip-rule="evenodd" d="M76.8795 84.8544C77.5314 85.8487 77.8567 87.0079 77.9647 88.1361L77.9614 88.1356C78.1748 90.7199 76.1572 92.7804 74.6608 93.5659L78.1226 105.647L68.0744 106.648L70.7922 93.4193C70.3775 93.2148 69.9838 92.952 69.6289 92.6319C68.1857 91.3307 67.5539 89.2261 67.8575 87.4634C68.1597 85.6989 69.2926 84.281 70.7272 83.4084C71.7194 82.8048 72.9346 82.4326 74.1626 82.7588C75.2437 83.0465 76.2294 83.8587 76.8795 84.8544Z" fill="#5938B7"/>
<path fill-rule="evenodd" clip-rule="evenodd" d="M100.69 68.5218L45.2724 69.5978L45.2569 68.798L100.675 67.722L100.69 68.5218Z" fill="#5938B7"/>
</svg>
