<svg width="128" height="128" viewBox="0 0 128 128" fill="none" xmlns="http://www.w3.org/2000/svg">
<path d="M61.7638 12.5933C26.7061 13.8357 -0.70861 43.2935 0.535342 78.3935L0.561861 78.3926C0.556075 78.7288 0.55923 79.0675 0.571302 79.4082C1.33331 100.909 37.4775 113.663 74.3411 112.357C111.203 111.05 128.294 96.41 127.532 74.9087C127.519 74.568 127.502 74.2298 127.482 73.8945L127.496 73.894C126.252 38.7981 96.8203 11.3509 61.7638 12.5933Z" fill="#C7E2FE"/>
<path fill-rule="evenodd" clip-rule="evenodd" d="M112.405 66.2467C112.712 66.9021 112.949 67.5579 113.116 68.2095L112.341 68.4084C112.187 67.808 111.968 67.1991 111.681 66.5858L112.405 66.2467ZM113.375 71.336C113.305 72.041 113.146 72.7284 112.898 73.3911L112.148 73.1104C112.372 72.5131 112.516 71.8936 112.579 71.2574L113.375 71.336ZM109.452 62.0526C109.941 62.5648 110.385 63.0829 110.784 63.6047L110.148 64.0903C109.768 63.5931 109.344 63.0972 108.874 62.6051L109.452 62.0526ZM105.542 58.7641C106.119 59.1619 106.664 59.567 107.177 59.9783L106.677 60.6026C106.179 60.2038 105.65 59.8101 105.088 59.4228L105.542 58.7641ZM111.275 76.0777C110.833 76.5851 110.324 77.0639 109.751 77.5099L109.26 76.8783C109.795 76.4619 110.266 76.0183 110.672 75.5521L111.275 76.0777ZM101.165 56.209C101.788 56.5181 102.386 56.8348 102.961 57.1584L102.569 57.8555C102.006 57.539 101.42 57.2287 100.809 56.9256L101.165 56.209ZM107.104 79.1146C106.51 79.3944 105.877 79.6503 105.204 79.8803L104.946 79.1233C105.592 78.9023 106.198 78.6575 106.762 78.3911L107.104 79.1146ZM96.5054 54.216C97.153 54.454 97.7815 54.6994 98.3912 54.9517L98.0853 55.6909C97.4857 55.4428 96.8672 55.2013 96.2294 54.9669L96.5054 54.216ZM92.6385 52.9524C92.9716 53.0487 93.3005 53.1468 93.6254 53.2466L93.3903 54.0113C93.0698 53.9128 92.7452 53.816 92.4164 53.7209C92.0898 53.6265 91.7643 53.5342 91.44 53.444L91.6544 52.6732C91.9813 52.7642 92.3094 52.8573 92.6385 52.9524ZM102.23 80.6717C101.586 80.8 100.916 80.909 100.219 80.9973L100.118 80.2037C100.797 80.1176 101.449 80.0116 102.074 79.8871L102.23 80.6717ZM86.8122 51.4576C87.4509 51.6002 88.0944 51.751 88.7425 51.9102L88.5517 52.6871C87.909 52.5293 87.271 52.3797 86.6379 52.2383L86.8122 51.4576ZM97.1896 81.2421C96.5318 81.2672 95.8547 81.2762 95.1584 81.2683L95.1675 80.4684C95.851 80.4762 96.5148 80.4673 97.159 80.4426L97.1896 81.2421ZM81.9041 50.5059C82.5472 50.6113 83.1956 50.7253 83.8493 50.8481L83.7016 51.6343C83.0539 51.5126 82.4117 51.3997 81.7748 51.2954L81.9041 50.5059ZM92.1202 81.1334C91.7812 81.1077 91.4382 81.0784 91.0913 81.0453C90.7726 81.0149 90.4488 80.9813 90.1202 80.9444L90.2094 80.1494C90.5337 80.1858 90.8531 80.2189 91.1673 80.2489C91.5091 80.2815 91.8468 80.3104 92.1806 80.3357L92.1202 81.1334ZM76.9381 49.8523C77.5871 49.9162 78.2422 49.9895 78.9033 50.0721L78.804 50.8659C78.1497 50.7841 77.5016 50.7117 76.8596 50.6484L76.9381 49.8523ZM87.1876 80.5451C86.5535 80.4441 85.9058 80.3318 85.2458 80.2077L85.3937 79.4215C86.0464 79.5442 86.6867 79.6552 87.3134 79.755L87.1876 80.5451ZM71.9302 49.5367C72.5853 49.5539 73.2475 49.581 73.9168 49.6184L73.8722 50.4171C73.2107 50.3802 72.5564 50.3534 71.9092 50.3364L71.9302 49.5367ZM82.3449 79.6016C81.7153 79.457 81.0769 79.3021 80.431 79.1363L80.6298 78.3614C81.2691 78.5255 81.9009 78.6788 82.5239 78.8219L82.3449 79.6016ZM66.9066 49.6056C67.5663 49.5691 68.2344 49.5434 68.9108 49.5288L68.9281 50.3286C68.2605 50.343 67.6014 50.3683 66.9509 50.4044L66.9066 49.6056ZM77.5884 78.3502C76.9662 78.1656 76.3385 77.9712 75.7061 77.7665L75.9524 77.0054C76.5785 77.208 77.2 77.4005 77.816 77.5832L77.5884 78.3502ZM72.9124 76.8054C72.3014 76.5825 71.6872 76.3501 71.0705 76.1079L71.363 75.3633C71.9735 75.6031 72.5816 75.8332 73.1865 76.0538L72.9124 76.8054ZM61.9071 50.1106C62.5673 50.0121 63.2375 49.9255 63.9177 49.8509L64.0048 50.6462C63.3348 50.7196 62.6749 50.8049 62.0251 50.9018L61.9071 50.1106ZM68.3388 74.9759C67.7419 74.7154 67.1436 74.4455 66.5445 74.166L66.8828 73.441C67.4757 73.7177 68.068 73.9848 68.6588 74.2427L68.3388 74.9759ZM56.9878 51.1066C57.6307 50.9398 58.2853 50.7854 58.9513 50.6437L59.1178 51.4261C58.4631 51.5654 57.8201 51.7172 57.1888 51.881L56.9878 51.1066ZM63.8886 72.8646C63.3087 72.5665 62.7289 72.2592 62.1497 71.9423L62.5337 71.2404C63.1067 71.554 63.6805 71.8581 64.2543 72.1531L63.8886 72.8646ZM52.2177 52.6511C52.8295 52.4102 53.4547 52.182 54.093 51.967L54.3484 52.7252C53.7225 52.936 53.1099 53.1595 52.5108 53.3954L52.2177 52.6511ZM59.5835 70.4717C59.0238 70.136 58.4654 69.7911 57.9088 69.4366L58.3386 68.7618C58.889 69.1124 59.4413 69.4536 59.995 69.7856L59.5835 70.4717ZM55.4473 67.7971C54.9112 67.4238 54.3775 67.0413 53.8468 66.6493L54.322 66.0058C54.8467 66.3933 55.3743 66.7715 55.9044 67.1406L55.4473 67.7971ZM47.6566 54.8174C48.2381 54.4884 48.8357 54.173 49.4493 53.8717L49.802 54.5897C49.2021 54.8843 48.6182 55.1925 48.0505 55.5137L47.6566 54.8174ZM51.5056 64.8422C50.9969 64.4317 50.4915 64.012 49.9899 63.5829L50.51 62.975C51.0056 63.3991 51.5051 63.8139 52.0079 64.2195L51.5056 64.8422ZM47.7856 61.6114C47.3077 61.1646 46.8341 60.7086 46.3651 60.2432L46.9287 59.6754C47.3919 60.1351 47.8598 60.5856 48.3319 61.0271L47.7856 61.6114ZM44.3476 56.9612C44.5931 56.7797 44.8423 56.6009 45.0954 56.425L45.5519 57.0819C45.3277 57.2378 45.1065 57.396 44.8884 57.5565C44.893 57.5615 44.8976 57.5666 44.9023 57.5716L44.3137 58.1134C44.2916 58.0894 44.2695 58.0654 44.2474 58.0413C44.1588 58.1103 44.0708 58.1796 43.9833 58.2493L43.4849 57.6235C43.5591 57.5644 43.6337 57.5055 43.7087 57.447C43.4704 57.1808 43.2336 56.9119 42.9984 56.6402L43.6032 56.1166C43.8496 56.4012 44.0978 56.6827 44.3476 56.9612ZM41.1145 54.3609C40.7097 53.8477 40.3104 53.3254 39.9172 52.794L40.5602 52.3181C40.9486 52.8429 41.3428 53.3586 41.7426 53.8655L41.1145 54.3609ZM38.2124 50.3763C37.8489 49.8348 37.4914 49.2846 37.1404 48.7255L37.8179 48.3001C38.1646 48.8523 38.5176 49.3957 38.8766 49.9304L38.2124 50.3763ZM39.818 61.1048C40.262 60.6004 40.7272 60.1092 41.2134 59.6317L41.774 60.2024C41.3015 60.6665 40.8495 61.1437 40.4185 61.6334L39.818 61.1048ZM60.2392 118.741C59.9538 118.552 59.6708 118.362 59.3902 118.171L59.8399 117.509C60.1182 117.698 60.3988 117.887 60.6819 118.075L60.2392 118.741ZM35.6251 46.1859C35.3028 45.6169 34.987 45.0394 34.678 44.4532L35.3856 44.0801C35.6909 44.6591 36.0029 45.2296 36.3212 45.7917L35.6251 46.1859ZM33.3568 41.8065C33.0787 41.217 32.8072 40.6193 32.5425 40.0133L33.2757 39.6931C33.5372 40.292 33.8055 40.8826 34.0804 41.4651L33.3568 41.8065ZM31.4183 37.2805C31.2992 36.9726 31.1819 36.6628 31.0664 36.3509L31.8165 36.0729C31.9308 36.3813 32.0467 36.6876 32.1644 36.992L31.4183 37.2805ZM56.9293 116.44C56.3879 116.046 55.8564 115.649 55.3346 115.251L55.82 114.615C56.337 115.01 56.8637 115.402 57.4002 115.793L56.9293 116.44ZM36.8525 65.1904C37.1935 64.6113 37.5578 64.044 37.9449 63.4892L38.601 63.947C38.2256 64.4851 37.8724 65.0351 37.5418 65.5964L36.8525 65.1904ZM52.968 113.377C52.4511 112.952 51.9449 112.525 51.4493 112.096L51.9727 111.491C52.4631 111.915 52.9642 112.338 53.476 112.759L52.968 113.377ZM34.7237 69.7738C34.9474 69.1357 35.1955 68.5076 35.4678 67.8902L36.1998 68.2129C35.936 68.8113 35.6954 69.42 35.4786 70.0385L34.7237 69.7738ZM49.2044 110.075C48.7144 109.615 48.2363 109.154 47.77 108.691L48.3335 108.123C48.7945 108.581 49.2672 109.037 49.7517 109.491L49.2044 110.075ZM45.6786 106.521C45.2203 106.023 44.7752 105.524 44.3433 105.023L44.9489 104.5C45.3752 104.994 45.8147 105.487 46.2673 105.979L45.6786 106.521ZM33.5182 74.6758C33.617 74.0066 33.7401 73.345 33.8872 72.6917L34.6677 72.8675C34.5249 73.5011 34.4055 74.1431 34.3096 74.7926L33.5182 74.6758ZM42.4422 102.705C42.0225 102.165 41.6177 101.625 41.2277 101.084L41.8767 100.616C42.2609 101.149 42.6599 101.682 43.0736 102.214L42.4422 102.705ZM33.2351 79.7164C33.2136 79.0365 33.2155 78.362 33.2407 77.6936L34.0402 77.7238C34.0156 78.3735 34.0137 79.0294 34.0347 79.691L33.2351 79.7164ZM39.5444 98.6014C39.1783 98.0258 38.8285 97.4498 38.495 96.8738L39.1874 96.473C39.5152 97.0392 39.8592 97.6057 40.2194 98.1721L39.5444 98.6014ZM33.8068 84.7249C33.6769 84.0585 33.5688 83.3955 33.4823 82.7364L34.2755 82.6323C34.3599 83.2748 34.4653 83.9215 34.592 84.5719L33.8068 84.7249ZM37.0704 94.2154C36.7727 93.6117 36.4926 93.0085 36.2302 92.4063L36.9635 92.0867C37.2209 92.6772 37.4956 93.2689 37.7879 93.8615L37.0704 94.2154ZM35.1254 89.5849C34.9019 88.9415 34.6984 88.3 34.5148 87.6607L35.2837 87.4398C35.4633 88.0649 35.6623 88.6926 35.8811 89.3224L35.1254 89.5849Z" fill="#452995"/>
<path d="M14.4834 29.3453C13.7222 30.128 13.0967 30.8771 12.6891 31.4908L12.6902 31.4916C12.6709 31.5191 12.6517 31.5471 12.6328 31.5755C11.4416 33.3691 12.1395 35.5177 15.2298 37.5701C18.3203 39.6226 22.0855 40.4381 23.2767 38.6444C23.2956 38.616 23.3136 38.5873 23.3307 38.5583L23.3329 38.5598C25.2775 35.6317 27.8628 28.848 24.475 24.5081C15.4115 12.8973 -6.14598 18.063 2.80513 24.3649C4.09601 25.2737 5.20048 25.4561 6.64394 25.6321C7.14723 25.6934 7.5974 25.866 7.89452 26.3133C9.02129 28.0097 9.71161 28.9123 11.886 29.3147C12.4906 29.4266 13.4073 29.4295 14.4834 29.3453Z" fill="#B59CF7"/>
<path d="M37.9616 20.5464C39.0123 20.5846 39.9462 20.6896 40.6383 20.8456L40.638 20.8469C40.6698 20.8531 40.7017 20.8598 40.7338 20.8671C42.7565 21.3227 43.7007 23.2825 42.9156 26.7676C42.1306 30.2528 40.0527 33.3261 38.03 32.8704C37.9979 32.8632 37.9663 32.8552 37.9351 32.8464L37.9345 32.8489C34.6324 32.1051 28.3185 29.1041 27.7883 23.829C26.3696 9.71617 44.8115 -1.0348 42.7753 9.30819C42.4817 10.7998 41.8343 11.6617 40.9468 12.7449C40.6373 13.1225 40.4388 13.5422 40.5297 14.0512C40.8744 15.9818 40.9946 17.0694 39.7491 18.7966C39.4027 19.2768 38.7666 19.8889 37.9616 20.5464Z" fill="#B59CF7"/>
<path d="M8.79747 23.6955C7.58539 23.556 7.06165 23.4449 6.3753 22.9686C5.51177 22.3693 5.35559 22.0916 6.41355 21.647C12.0569 19.2754 21.6971 22.2729 25.396 26.9459C24.4913 32.1712 20.1347 34.9097 18.4931 30.9299C17.2758 27.9787 25.2129 28.1802 24.4913 26.6688C24.0974 25.8438 16.2699 26.8688 15.3589 26.9463C14.3113 27.0354 13.4289 27.0368 12.4973 26.5377C10.1214 25.2647 19.4847 24.8903 18.9576 24.1082C18.189 22.9679 9.57666 23.7852 8.79747 23.6955Z" fill="white"/>
<path d="M38.3892 12.6189C39.1398 11.657 39.4278 11.2057 39.5696 10.3824C39.748 9.34651 39.6595 9.04042 38.6007 9.48283C32.9524 11.8428 28.0979 20.2547 28.8353 26.1686C32.2032 28.9719 38.433 28.5653 36.7471 24.6041C35.4969 21.6667 30.0744 27.4662 29.503 25.8919C29.1911 25.0325 35.4111 20.1712 36.1052 19.5761C36.9034 18.8918 37.5232 18.2638 37.8207 17.2496C38.5794 14.6632 31.7462 21.0755 31.5583 20.1512C31.2844 18.8037 37.9067 13.2372 38.3892 12.6189Z" fill="white"/>
<path d="M24.8823 20.8797C23.9434 21.2563 24.0326 23.2498 25.5024 26.9138C26.9722 30.5778 29.0056 33.8754 29.9444 33.4988C30.8832 33.1222 29.9546 29.381 28.485 25.7173C27.0153 22.0537 25.8211 20.5031 24.8823 20.8797Z" fill="#452995"/>
<path fill-rule="evenodd" clip-rule="evenodd" d="M24.8981 18.7167C24.7664 19.5219 24.7561 20.3557 24.9073 20.9529L25.6829 20.7565C25.569 20.3067 25.5652 19.5941 25.6876 18.8458C25.8098 18.0988 26.0471 17.3813 26.365 16.9098L25.7016 16.4626C25.2943 17.0669 25.03 17.9101 24.8981 18.7167Z" fill="#B59CF7"/>
<path d="M25.4725 16.5917C25.6206 16.9608 26.0398 17.1399 26.4088 16.9919C26.7779 16.8438 26.9571 16.4246 26.809 16.0556C26.661 15.6865 26.2418 15.5074 25.8727 15.6554C25.5037 15.8034 25.3245 16.2226 25.4725 16.5917Z" fill="#B59CF7"/>
<path fill-rule="evenodd" clip-rule="evenodd" d="M23.2524 19.3768C23.9041 19.8678 24.4877 20.4633 24.7912 20.9994L24.0949 21.3934C23.8664 20.9896 23.3766 20.472 22.771 20.0157C22.1665 19.5603 21.4991 19.2057 20.9434 19.0845L21.1139 18.3029C21.8259 18.4582 22.5997 18.885 23.2524 19.3768Z" fill="#B59CF7"/>
<path d="M21.3674 18.239C21.5155 18.6081 21.3363 19.0273 20.9672 19.1753C20.5982 19.3234 20.179 19.1442 20.0309 18.7751C19.8829 18.4061 20.0621 17.9869 20.4311 17.8388C20.8002 17.6908 21.2194 17.87 21.3674 18.239Z" fill="#B59CF7"/>
</svg>
