<svg width="128" height="128" viewBox="0 0 128 128" fill="none" xmlns="http://www.w3.org/2000/svg">
<path d="M61.7638 12.5932C26.7061 13.8357 -0.70861 43.2935 0.535342 78.3935L0.561861 78.3926C0.556075 78.7288 0.55923 79.0675 0.571302 79.4082C1.33331 100.909 37.4775 113.663 74.3411 112.357C111.203 111.05 128.294 96.41 127.532 74.9087C127.519 74.568 127.502 74.2298 127.482 73.8945L127.496 73.894C126.252 38.7981 96.8203 11.3508 61.7638 12.5932Z" fill="#B1D8FC"/>
<path d="M32.772 70.3635L52.0788 96.9792L53.3886 66.0303L108.742 17.3653L96.7747 24.6229" fill="#5938B7"/>
<path d="M48.0304 66.259L52.0788 96.9792L87.3459 41.2533" fill="#E1D7FB"/>
<path d="M10.7952 69.5983L109.422 16.8611L85.8251 95.5602L48.0293 66.2584L109.422 16.8611L32.772 70.3635L10.7952 69.5983Z" fill="white"/>
<path fill-rule="evenodd" clip-rule="evenodd" d="M51.7822 97.0669L32.4754 70.4511L33.123 69.9814L52.4297 96.5972L51.7822 97.0669Z" fill="#5938B7"/>
<path fill-rule="evenodd" clip-rule="evenodd" d="M51.6512 96.8514L47.6026 66.1303L48.3957 66.0258L52.4443 96.7469L51.6512 96.8514Z" fill="#5938B7"/>
<path fill-rule="evenodd" clip-rule="evenodd" d="M71.2726 44.3322L108.872 16.7867L109.358 17.4216L48.644 66.0732L86.0388 95.064L85.5486 95.6963L47.3517 66.0835L94.4324 28.3569L71.7292 44.9893L32.9597 70.5178L32.5198 69.8496L71.2726 44.3322Z" fill="#5938B7"/>
<path fill-rule="evenodd" clip-rule="evenodd" d="M64.0249 78.7878L52.4781 96.9328L51.8032 96.5033L63.35 78.3583L64.0249 78.7878Z" fill="#5938B7"/>
<path fill-rule="evenodd" clip-rule="evenodd" d="M6.12214 116.896L37.7237 93.3788L38.2013 94.0206L6.59975 117.538L6.12214 116.896ZM21.8967 116.917L41.0046 100.014L41.5346 100.613L22.4267 117.516L21.8967 116.917Z" fill="#A98DF6"/>
</svg>
